<?xml version="1.0" encoding="UTF-8" standalone="no"?>
<!DOCTYPE svg PUBLIC "-//W3C//DTD SVG 1.1//EN"
 "http://www.w3.org/Graphics/SVG/1.1/DTD/svg11.dtd">
<!-- Generated by graphviz version 13.1.0 (20250701.0955)
 -->
<!-- Title: src/driver_bpc.h Pages: 1 -->
<svg width="372pt" height="232pt"
 viewBox="0.00 0.00 372.00 232.00" xmlns="http://www.w3.org/2000/svg" xmlns:xlink="http://www.w3.org/1999/xlink">
<g id="graph0" class="graph" transform="scale(1 1) rotate(0) translate(4 228)">
<title>src/driver_bpc.h</title>
<!-- Node1 -->
<g id="Node000001" class="node">
<title>Node1</title>
<g id="a_Node000001"><a xlink:title="driver bpc header file">
<polygon fill="#999999" stroke="#666666" points="272.25,-224 186.5,-224 186.5,-204 272.25,-204 272.25,-224"/>
<text xml:space="preserve" text-anchor="middle" x="229.38" y="-210.5" font-family="Helvetica,sans-Serif" font-size="10.00">src/driver_bpc.h</text>
</a>
</g>
</g>
<!-- Node2 -->
<g id="Node000002" class="node">
<title>Node2</title>
<g id="a_Node000002"><a xlink:href="driver__bpc__interface_8h.html" target="_top" xlink:title="driver bpc interface header file">
<polygon fill="white" stroke="#666666" points="224.12,-168 122.62,-168 122.62,-136 224.12,-136 224.12,-168"/>
<text xml:space="preserve" text-anchor="start" x="130.62" y="-154.5" font-family="Helvetica,sans-Serif" font-size="10.00">interface/driver_bpc</text>
<text xml:space="preserve" text-anchor="middle" x="173.38" y="-142.5" font-family="Helvetica,sans-Serif" font-size="10.00">_interface.h</text>
</a>
</g>
</g>
<!-- Node1&#45;&gt;Node2 -->
<g id="edge1_Node000001_Node000002" class="edge">
<title>Node1&#45;&gt;Node2</title>
<g id="a_edge1_Node000001_Node000002"><a xlink:title=" ">
<path fill="none" stroke="#63b8ff" d="M212.92,-195.37C204.86,-186.73 195.24,-176.42 187.51,-168.14"/>
<polygon fill="#63b8ff" stroke="#63b8ff" points="210.21,-197.6 219.59,-202.52 215.33,-192.82 210.21,-197.6"/>
</a>
</g>
</g>
<!-- Node8 -->
<g id="Node000008" class="node">
<title>Node8</title>
<g id="a_Node000008"><a xlink:href="driver__bpc_8c.html" target="_top" xlink:title="driver bpc source file">
<polygon fill="white" stroke="#666666" points="328.25,-162 242.5,-162 242.5,-142 328.25,-142 328.25,-162"/>
<text xml:space="preserve" text-anchor="middle" x="285.38" y="-148.5" font-family="Helvetica,sans-Serif" font-size="10.00">src/driver_bpc.c</text>
</a>
</g>
</g>
<!-- Node1&#45;&gt;Node8 -->
<g id="edge7_Node000001_Node000008" class="edge">
<title>Node1&#45;&gt;Node8</title>
<g id="a_edge7_Node000001_Node000008"><a xlink:title=" ">
<path fill="none" stroke="#63b8ff" d="M245.94,-195.25C256.1,-184.36 268.69,-170.88 276.87,-162.11"/>
<polygon fill="#63b8ff" stroke="#63b8ff" points="243.42,-192.82 239.16,-202.52 248.54,-197.6 243.42,-192.82"/>
</a>
</g>
</g>
<!-- Node3 -->
<g id="Node000003" class="node">
<title>Node3</title>
<g id="a_Node000003"><a xlink:href="driver__bpc__basic_8h.html" target="_top" xlink:title="driver bpc basic header file">
<polygon fill="white" stroke="#666666" points="100.75,-100 0,-100 0,-68 100.75,-68 100.75,-100"/>
<text xml:space="preserve" text-anchor="start" x="8" y="-86.5" font-family="Helvetica,sans-Serif" font-size="10.00">example/driver_bpc</text>
<text xml:space="preserve" text-anchor="middle" x="50.38" y="-74.5" font-family="Helvetica,sans-Serif" font-size="10.00">_basic.h</text>
</a>
</g>
</g>
<!-- Node2&#45;&gt;Node3 -->
<g id="edge2_Node000002_Node000003" class="edge">
<title>Node2&#45;&gt;Node3</title>
<g id="a_edge2_Node000002_Node000003"><a xlink:title=" ">
<path fill="none" stroke="#63b8ff" d="M134.62,-130.2C116.61,-120.54 95.58,-109.26 79.03,-100.38"/>
<polygon fill="#63b8ff" stroke="#63b8ff" points="132.74,-133.17 143.2,-134.81 136.05,-127 132.74,-133.17"/>
</a>
</g>
</g>
<!-- Node5 -->
<g id="Node000005" class="node">
<title>Node5</title>
<g id="a_Node000005"><a xlink:href="driver__bpc__interface__template_8c.html" target="_top" xlink:title="driver bpc interface template source file">
<polygon fill="white" stroke="#666666" points="228.25,-100 118.5,-100 118.5,-68 228.25,-68 228.25,-100"/>
<text xml:space="preserve" text-anchor="start" x="126.5" y="-86.5" font-family="Helvetica,sans-Serif" font-size="10.00">interface/driver_bpc</text>
<text xml:space="preserve" text-anchor="middle" x="173.38" y="-74.5" font-family="Helvetica,sans-Serif" font-size="10.00">_interface_template.c</text>
</a>
</g>
</g>
<!-- Node2&#45;&gt;Node5 -->
<g id="edge4_Node000002_Node000005" class="edge">
<title>Node2&#45;&gt;Node5</title>
<g id="a_edge4_Node000002_Node000005"><a xlink:title=" ">
<path fill="none" stroke="#63b8ff" d="M173.38,-124.31C173.38,-116.12 173.38,-107.38 173.38,-100.22"/>
<polygon fill="#63b8ff" stroke="#63b8ff" points="169.88,-124.18 173.38,-134.18 176.88,-124.18 169.88,-124.18"/>
</a>
</g>
</g>
<!-- Node6 -->
<g id="Node000006" class="node">
<title>Node6</title>
<g id="a_Node000006"><a xlink:href="driver__bpc__receive__test_8h.html" target="_top" xlink:title="driver bpc receive test header file">
<polygon fill="white" stroke="#666666" points="364,-100 246.75,-100 246.75,-68 364,-68 364,-100"/>
<text xml:space="preserve" text-anchor="start" x="254.75" y="-86.5" font-family="Helvetica,sans-Serif" font-size="10.00">test/driver_bpc_receive</text>
<text xml:space="preserve" text-anchor="middle" x="305.38" y="-74.5" font-family="Helvetica,sans-Serif" font-size="10.00">_test.h</text>
</a>
</g>
</g>
<!-- Node2&#45;&gt;Node6 -->
<g id="edge5_Node000002_Node000006" class="edge">
<title>Node2&#45;&gt;Node6</title>
<g id="a_edge5_Node000002_Node000006"><a xlink:title=" ">
<path fill="none" stroke="#63b8ff" d="M214.43,-130.47C233.87,-120.75 256.7,-109.34 274.62,-100.38"/>
<polygon fill="#63b8ff" stroke="#63b8ff" points="213.06,-127.25 205.68,-134.85 216.19,-133.51 213.06,-127.25"/>
</a>
</g>
</g>
<!-- Node4 -->
<g id="Node000004" class="node">
<title>Node4</title>
<g id="a_Node000004"><a xlink:href="driver__bpc__basic_8c.html" target="_top" xlink:title="driver bpc basic source file">
<polygon fill="white" stroke="#666666" points="100.75,-32 0,-32 0,0 100.75,0 100.75,-32"/>
<text xml:space="preserve" text-anchor="start" x="8" y="-18.5" font-family="Helvetica,sans-Serif" font-size="10.00">example/driver_bpc</text>
<text xml:space="preserve" text-anchor="middle" x="50.38" y="-6.5" font-family="Helvetica,sans-Serif" font-size="10.00">_basic.c</text>
</a>
</g>
</g>
<!-- Node3&#45;&gt;Node4 -->
<g id="edge3_Node000003_Node000004" class="edge">
<title>Node3&#45;&gt;Node4</title>
<g id="a_edge3_Node000003_Node000004"><a xlink:title=" ">
<path fill="none" stroke="#63b8ff" d="M50.38,-56.31C50.38,-48.12 50.38,-39.38 50.38,-32.22"/>
<polygon fill="#63b8ff" stroke="#63b8ff" points="46.88,-56.18 50.38,-66.18 53.88,-56.18 46.88,-56.18"/>
</a>
</g>
</g>
<!-- Node7 -->
<g id="Node000007" class="node">
<title>Node7</title>
<g id="a_Node000007"><a xlink:href="driver__bpc__receive__test_8c.html" target="_top" xlink:title="driver bpc receive test source file">
<polygon fill="white" stroke="#666666" points="364,-32 246.75,-32 246.75,0 364,0 364,-32"/>
<text xml:space="preserve" text-anchor="start" x="254.75" y="-18.5" font-family="Helvetica,sans-Serif" font-size="10.00">test/driver_bpc_receive</text>
<text xml:space="preserve" text-anchor="middle" x="305.38" y="-6.5" font-family="Helvetica,sans-Serif" font-size="10.00">_test.c</text>
</a>
</g>
</g>
<!-- Node6&#45;&gt;Node7 -->
<g id="edge6_Node000006_Node000007" class="edge">
<title>Node6&#45;&gt;Node7</title>
<g id="a_edge6_Node000006_Node000007"><a xlink:title=" ">
<path fill="none" stroke="#63b8ff" d="M305.38,-56.31C305.38,-48.12 305.38,-39.38 305.38,-32.22"/>
<polygon fill="#63b8ff" stroke="#63b8ff" points="301.88,-56.18 305.38,-66.18 308.88,-56.18 301.88,-56.18"/>
</a>
</g>
</g>
</g>
</svg>
