<?xml version="1.0" encoding="UTF-8" standalone="no"?>
<!DOCTYPE svg PUBLIC "-//W3C//DTD SVG 1.1//EN"
 "http://www.w3.org/Graphics/SVG/1.1/DTD/svg11.dtd">
<!-- Generated by graphviz version 13.1.0 (20250701.0955)
 -->
<!-- Title: bpc driver function Pages: 1 -->
<svg width="263pt" height="204pt"
 viewBox="0.00 0.00 263.00 204.00" xmlns="http://www.w3.org/2000/svg" xmlns:xlink="http://www.w3.org/1999/xlink">
<g id="graph0" class="graph" transform="scale(1 1) rotate(0) translate(4 200)">
<title>bpc driver function</title>
<!-- Node3 -->
<g id="Node000003" class="node">
<title>Node3</title>
<g id="a_Node000003"><a xlink:href="group__bpc__basic__driver.html" target="_top" xlink:title="bpc basic driver modules">
<polygon fill="white" stroke="#666666" points="254.75,-196 132.25,-196 132.25,-176 254.75,-176 254.75,-196"/>
<text xml:space="preserve" text-anchor="middle" x="193.5" y="-182.5" font-family="Helvetica,sans-Serif" font-size="10.00">bpc basic driver function</text>
</a>
</g>
</g>
<!-- Node1 -->
<g id="Node000001" class="node">
<title>Node1</title>
<g id="a_Node000001"><a xlink:title="bpc driver modules">
<polygon fill="#999999" stroke="#666666" points="96.25,-102 0,-102 0,-82 96.25,-82 96.25,-102"/>
<text xml:space="preserve" text-anchor="middle" x="48.12" y="-88.5" font-family="Helvetica,sans-Serif" font-size="10.00">bpc driver function</text>
</a>
</g>
</g>
<!-- Node1&#45;&gt;Node3 -->
<g id="edge2" class="edge">
<title>Node1&#45;&gt;Node3</title>
<path fill="none" stroke="black" d="M65.45,-110.74C81.06,-127.62 106.06,-152.01 132.25,-167 138.06,-170.32 144.52,-173.14 150.99,-175.51"/>
<polygon fill="black" stroke="black" points="68.1,-108.45 58.8,-103.37 62.9,-113.14 68.1,-108.45"/>
</g>
<!-- Node5 -->
<g id="Node000005" class="node">
<title>Node5</title>
<g id="a_Node000005"><a xlink:href="group__bpc__example__driver.html" target="_top" xlink:title="bpc example driver modules">
<polygon fill="white" stroke="#666666" points="242.75,-158 144.25,-158 144.25,-126 242.75,-126 242.75,-158"/>
<text xml:space="preserve" text-anchor="start" x="152.25" y="-144.5" font-family="Helvetica,sans-Serif" font-size="10.00">bpc example driver</text>
<text xml:space="preserve" text-anchor="middle" x="193.5" y="-132.5" font-family="Helvetica,sans-Serif" font-size="10.00"> function</text>
</a>
</g>
</g>
<!-- Node1&#45;&gt;Node5 -->
<g id="edge4" class="edge">
<title>Node1&#45;&gt;Node5</title>
<path fill="none" stroke="black" d="M90.03,-106.26C107.25,-112.27 127.41,-119.3 145.27,-125.53"/>
<polygon fill="black" stroke="black" points="91.21,-102.97 80.61,-102.98 88.9,-109.58 91.21,-102.97"/>
</g>
<!-- Node4 -->
<g id="Node000004" class="node">
<title>Node4</title>
<g id="a_Node000004"><a xlink:href="group__bpc__interface__driver.html" target="_top" xlink:title="bpc interface driver modules">
<polygon fill="white" stroke="#666666" points="243.12,-108 143.88,-108 143.88,-76 243.12,-76 243.12,-108"/>
<text xml:space="preserve" text-anchor="start" x="151.88" y="-94.5" font-family="Helvetica,sans-Serif" font-size="10.00">bpc interface driver</text>
<text xml:space="preserve" text-anchor="middle" x="193.5" y="-82.5" font-family="Helvetica,sans-Serif" font-size="10.00"> function</text>
</a>
</g>
</g>
<!-- Node1&#45;&gt;Node4 -->
<g id="edge3" class="edge">
<title>Node1&#45;&gt;Node4</title>
<path fill="none" stroke="black" d="M107.74,-92C119.7,-92 132.16,-92 143.73,-92"/>
<polygon fill="black" stroke="black" points="107.98,-88.5 97.98,-92 107.98,-95.5 107.98,-88.5"/>
</g>
<!-- Node2 -->
<g id="Node000002" class="node">
<title>Node2</title>
<g id="a_Node000002"><a xlink:href="group__bpc__link__driver.html" target="_top" xlink:title="bpc link driver modules">
<polygon fill="white" stroke="#666666" points="250.62,-58 136.38,-58 136.38,-38 250.62,-38 250.62,-58"/>
<text xml:space="preserve" text-anchor="middle" x="193.5" y="-44.5" font-family="Helvetica,sans-Serif" font-size="10.00">bpc link driver function</text>
</a>
</g>
</g>
<!-- Node1&#45;&gt;Node2 -->
<g id="edge1" class="edge">
<title>Node1&#45;&gt;Node2</title>
<path fill="none" stroke="black" d="M94,-78.23C114.93,-71.8 139.44,-64.28 158.77,-58.35"/>
<polygon fill="black" stroke="black" points="93.08,-74.85 84.55,-81.13 95.14,-81.54 93.08,-74.85"/>
</g>
<!-- Node6 -->
<g id="Node000006" class="node">
<title>Node6</title>
<g id="a_Node000006"><a xlink:href="group__bpc__test__driver.html" target="_top" xlink:title="bpc test driver modules">
<polygon fill="white" stroke="#666666" points="251.38,-20 135.62,-20 135.62,0 251.38,0 251.38,-20"/>
<text xml:space="preserve" text-anchor="middle" x="193.5" y="-6.5" font-family="Helvetica,sans-Serif" font-size="10.00">bpc test driver function</text>
</a>
</g>
</g>
<!-- Node1&#45;&gt;Node6 -->
<g id="edge5" class="edge">
<title>Node1&#45;&gt;Node6</title>
<path fill="none" stroke="black" d="M68.6,-74.14C84.66,-60.21 108.58,-41.23 132.25,-29 138.58,-25.73 145.58,-22.89 152.51,-20.48"/>
<polygon fill="black" stroke="black" points="66.4,-71.42 61.24,-80.67 71.05,-76.65 66.4,-71.42"/>
</g>
</g>
</svg>
