<?xml version="1.0" encoding="UTF-8" standalone="no"?>
<!DOCTYPE svg PUBLIC "-//W3C//DTD SVG 1.1//EN"
 "http://www.w3.org/Graphics/SVG/1.1/DTD/svg11.dtd">
<!-- Generated by graphviz version 13.1.0 (20250701.0955)
 -->
<!-- Title: bpc_basic_init Pages: 1 -->
<svg width="272pt" height="154pt"
 viewBox="0.00 0.00 272.00 154.00" xmlns="http://www.w3.org/2000/svg" xmlns:xlink="http://www.w3.org/1999/xlink">
<g id="graph0" class="graph" transform="scale(1 1) rotate(0) translate(4 150)">
<title>bpc_basic_init</title>
<!-- Node1 -->
<g id="Node000001" class="node">
<title>Node1</title>
<g id="a_Node000001"><a xlink:title="basic example init">
<polygon fill="#999999" stroke="#666666" points="78.25,-80 0,-80 0,-60 78.25,-60 78.25,-80"/>
<text xml:space="preserve" text-anchor="middle" x="39.12" y="-66.5" font-family="Helvetica,sans-Serif" font-size="10.00">bpc_basic_init</text>
</a>
</g>
</g>
<!-- Node2 -->
<g id="Node000002" class="node">
<title>Node2</title>
<g id="a_Node000002"><a xlink:href="group__bpc__basic__driver.html#ga753b460376b8a8f9045b1a2f24f3abf6" target="_top" xlink:title="initialize the chip">
<polygon fill="white" stroke="#666666" points="213.88,-146 164.12,-146 164.12,-126 213.88,-126 213.88,-146"/>
<text xml:space="preserve" text-anchor="middle" x="189" y="-132.5" font-family="Helvetica,sans-Serif" font-size="10.00">bpc_init</text>
</a>
</g>
</g>
<!-- Node1&#45;&gt;Node2 -->
<g id="edge1_Node000001_Node000002" class="edge">
<title>Node1&#45;&gt;Node2</title>
<g id="a_edge1_Node000001_Node000002"><a xlink:title=" ">
<path fill="none" stroke="#63b8ff" d="M53.61,-80.39C67.93,-90.98 91.6,-107.19 114.25,-117 126.42,-122.27 140.37,-126.33 152.85,-129.31"/>
<polygon fill="#63b8ff" stroke="#63b8ff" points="151.79,-132.66 162.31,-131.43 153.32,-125.83 151.79,-132.66"/>
</a>
</g>
</g>
<!-- Node3 -->
<g id="Node000003" class="node">
<title>Node3</title>
<g id="a_Node000003"><a xlink:href="group__bpc__interface__driver.html#gac35f90cc2c9c2e10cc2f6063b6f44876" target="_top" xlink:title="interface print format data">
<polygon fill="white" stroke="#666666" points="242,-108 136,-108 136,-76 242,-76 242,-108"/>
<text xml:space="preserve" text-anchor="start" x="144" y="-94.5" font-family="Helvetica,sans-Serif" font-size="10.00">bpc_interface_debug</text>
<text xml:space="preserve" text-anchor="middle" x="189" y="-82.5" font-family="Helvetica,sans-Serif" font-size="10.00">_print</text>
</a>
</g>
</g>
<!-- Node1&#45;&gt;Node3 -->
<g id="edge2_Node000001_Node000003" class="edge">
<title>Node1&#45;&gt;Node3</title>
<g id="a_edge2_Node000001_Node000003"><a xlink:title=" ">
<path fill="none" stroke="#63b8ff" d="M78.59,-75.72C92.57,-77.8 108.77,-80.21 124.34,-82.53"/>
<polygon fill="#63b8ff" stroke="#63b8ff" points="123.63,-85.96 134.04,-83.97 124.66,-79.04 123.63,-85.96"/>
</a>
</g>
</g>
<!-- Node4 -->
<g id="Node000004" class="node">
<title>Node4</title>
<g id="a_Node000004"><a xlink:href="group__bpc__interface__driver.html#ga28419b88829f4bb8222d07419582d09f" target="_top" xlink:title="interface delay ms">
<polygon fill="white" stroke="#666666" points="249.88,-58 128.12,-58 128.12,-38 249.88,-38 249.88,-58"/>
<text xml:space="preserve" text-anchor="middle" x="189" y="-44.5" font-family="Helvetica,sans-Serif" font-size="10.00">bpc_interface_delay_ms</text>
</a>
</g>
</g>
<!-- Node1&#45;&gt;Node4 -->
<g id="edge3_Node000001_Node000004" class="edge">
<title>Node1&#45;&gt;Node4</title>
<g id="a_edge3_Node000001_Node000004"><a xlink:title=" ">
<path fill="none" stroke="#63b8ff" d="M78.59,-64.28C90.17,-62.55 103.28,-60.6 116.29,-58.67"/>
<polygon fill="#63b8ff" stroke="#63b8ff" points="116.79,-62.13 126.17,-57.2 115.76,-55.21 116.79,-62.13"/>
</a>
</g>
</g>
<!-- Node5 -->
<g id="Node000005" class="node">
<title>Node5</title>
<g id="a_Node000005"><a xlink:href="group__bpc__interface__driver.html#ga228165b4f930135dec6221706ab4862a" target="_top" xlink:title="interface timestamp read">
<polygon fill="white" stroke="#666666" points="263.75,-20 114.25,-20 114.25,0 263.75,0 263.75,-20"/>
<text xml:space="preserve" text-anchor="middle" x="189" y="-6.5" font-family="Helvetica,sans-Serif" font-size="10.00">bpc_interface_timestamp_read</text>
</a>
</g>
</g>
<!-- Node1&#45;&gt;Node5 -->
<g id="edge4_Node000001_Node000005" class="edge">
<title>Node1&#45;&gt;Node5</title>
<g id="a_edge4_Node000001_Node000005"><a xlink:title=" ">
<path fill="none" stroke="#63b8ff" d="M56.03,-59.65C70.66,-50.51 93.21,-37.37 114.25,-29 119.14,-27.06 124.29,-25.26 129.5,-23.6"/>
<polygon fill="#63b8ff" stroke="#63b8ff" points="130.18,-27.05 138.77,-20.85 128.19,-20.34 130.18,-27.05"/>
</a>
</g>
</g>
</g>
</svg>
