<?xml version="1.0" encoding="UTF-8" standalone="no"?>
<!DOCTYPE svg PUBLIC "-//W3C//DTD SVG 1.1//EN"
 "http://www.w3.org/Graphics/SVG/1.1/DTD/svg11.dtd">
<!-- Generated by graphviz version 13.1.0 (20250701.0955)
 -->
<!-- Title: bpc_handle_s Pages: 1 -->
<svg width="168pt" height="176pt"
 viewBox="0.00 0.00 168.00 176.00" xmlns="http://www.w3.org/2000/svg" xmlns:xlink="http://www.w3.org/1999/xlink">
<g id="graph0" class="graph" transform="scale(1 1) rotate(0) translate(4 172)">
<title>bpc_handle_s</title>
<!-- Node1 -->
<g id="Node000001" class="node">
<title>Node1</title>
<g id="a_Node000001"><a xlink:title="bpc handle structure definition">
<polygon fill="#999999" stroke="#666666" points="89.12,-20 13.12,-20 13.12,0 89.12,0 89.12,-20"/>
<text xml:space="preserve" text-anchor="middle" x="51.12" y="-6.5" font-family="Helvetica,sans-Serif" font-size="10.00">bpc_handle_s</text>
</a>
</g>
</g>
<!-- Node2 -->
<g id="Node000002" class="node">
<title>Node2</title>
<g id="a_Node000002"><a xlink:href="structbpc__decode__s.html" target="_top" xlink:title="bpc decode structure definition">
<polygon fill="white" stroke="#666666" points="159.62,-94 80.62,-94 80.62,-74 159.62,-74 159.62,-94"/>
<text xml:space="preserve" text-anchor="middle" x="120.12" y="-80.5" font-family="Helvetica,sans-Serif" font-size="10.00">bpc_decode_s</text>
</a>
</g>
</g>
<!-- Node2&#45;&gt;Node1 -->
<g id="edge1_Node000001_Node000002" class="edge">
<title>Node2&#45;&gt;Node1</title>
<g id="a_edge1_Node000001_Node000002"><a xlink:title=" ">
<path fill="none" stroke="#9a32cd" stroke-dasharray="5,2" d="M103.35,-65.5C89.66,-51.21 70.84,-31.57 59.93,-20.19"/>
<polygon fill="#9a32cd" stroke="#9a32cd" points="100.61,-67.7 110.06,-72.49 105.67,-62.85 100.61,-67.7"/>
</a>
</g>
<text xml:space="preserve" text-anchor="start" x="96.83" y="-43.5" font-family="Helvetica,sans-Serif" font-size="10.00" fill="grey">decode</text>
</g>
<!-- Node3 -->
<g id="Node000003" class="node">
<title>Node3</title>
<g id="a_Node000003"><a xlink:href="structbpc__time__s.html" target="_top" xlink:title="bpc time structure definition">
<polygon fill="white" stroke="#666666" points="66.25,-168 0,-168 0,-148 66.25,-148 66.25,-168"/>
<text xml:space="preserve" text-anchor="middle" x="33.12" y="-154.5" font-family="Helvetica,sans-Serif" font-size="10.00">bpc_time_s</text>
</a>
</g>
</g>
<!-- Node3&#45;&gt;Node1 -->
<g id="edge3_Node000001_Node000003" class="edge">
<title>Node3&#45;&gt;Node1</title>
<g id="a_edge3_Node000001_Node000003"><a xlink:title=" ">
<path fill="none" stroke="#9a32cd" stroke-dasharray="5,2" d="M28.42,-136.45C25.28,-119.55 22.39,-95.05 26.38,-74 30.14,-54.14 40.02,-32.53 46.09,-20.48"/>
<polygon fill="#9a32cd" stroke="#9a32cd" points="24.99,-137.14 30.46,-146.22 31.85,-135.72 24.99,-137.14"/>
</a>
</g>
<text xml:space="preserve" text-anchor="start" x="29.38" y="-80.5" font-family="Helvetica,sans-Serif" font-size="10.00" fill="grey">last_time</text>
</g>
<!-- Node3&#45;&gt;Node2 -->
<g id="edge2_Node000002_Node000003" class="edge">
<title>Node3&#45;&gt;Node2</title>
<g id="a_edge2_Node000002_Node000003"><a xlink:title=" ">
<path fill="none" stroke="#9a32cd" stroke-dasharray="5,2" d="M53.25,-140.35C70.48,-126.08 94.68,-106.06 108.75,-94.42"/>
<polygon fill="#9a32cd" stroke="#9a32cd" points="51.14,-137.55 45.66,-146.62 55.6,-142.94 51.14,-137.55"/>
</a>
</g>
<text xml:space="preserve" text-anchor="start" x="89.98" y="-117.5" font-family="Helvetica,sans-Serif" font-size="10.00" fill="grey">t</text>
</g>
</g>
</svg>
